<svg viewBox="0 0 330 200" xmlns="http://www.w3.org/2000/svg"><g><g><g><g><g><line x1="51.5625" y1="177" x2="46.5625" y2="177" style="visibility: inherit;" fill="rgb(0, 0, 0)" stroke="rgb(204, 204, 204)" stroke-width="1px"></line><line x1="51.5625" y1="164.35714285714286" x2="46.5625" y2="164.35714285714286" style="visibility: inherit;" fill="rgb(0, 0, 0)" stroke="rgb(204, 204, 204)" stroke-width="1px"></line><line x1="51.5625" y1="151.71428571428572" x2="46.5625" y2="151.71428571428572" style="visibility: inherit;" fill="rgb(0, 0, 0)" stroke="rgb(204, 204, 204)" stroke-width="1px"></line><line x1="51.5625" y1="139.07142857142858" x2="46.5625" y2="139.07142857142858" style="visibility: inherit;" fill="rgb(0, 0, 0)" stroke="rgb(204, 204, 204)" stroke-width="1px"></line><line x1="51.5625" y1="126.42857142857142" x2="46.5625" y2="126.42857142857142" style="visibility: inherit;" fill="rgb(0, 0, 0)" stroke="rgb(204, 204, 204)" stroke-width="1px"></line><line x1="51.5625" y1="113.78571428571428" x2="46.5625" y2="113.78571428571428" style="visibility: inherit;" fill="rgb(0, 0, 0)" stroke="rgb(204, 204, 204)" stroke-width="1px"></line><line x1="51.5625" y1="101.14285714285714" x2="46.5625" y2="101.14285714285714" style="visibility: inherit;" fill="rgb(0, 0, 0)" stroke="rgb(204, 204, 204)" stroke-width="1px"></line><line x1="51.5625" y1="88.49999999999999" x2="46.5625" y2="88.49999999999999" style="visibility: inherit;" fill="rgb(0, 0, 0)" stroke="rgb(204, 204, 204)" stroke-width="1px"></line><line x1="51.5625" y1="75.85714285714286" x2="46.5625" y2="75.85714285714286" style="visibility: inherit;" fill="rgb(0, 0, 0)" stroke="rgb(204, 204, 204)" stroke-width="1px"></line><line x1="51.5625" y1="63.21428571428571" x2="46.5625" y2="63.21428571428571" style="visibility: inherit;" fill="rgb(0, 0, 0)" stroke="rgb(204, 204, 204)" stroke-width="1px"></line><line x1="51.5625" y1="50.57142857142857" x2="46.5625" y2="50.57142857142857" style="visibility: inherit;" fill="rgb(0, 0, 0)" stroke="rgb(204, 204, 204)" stroke-width="1px"></line><line x1="51.5625" y1="37.92857142857141" x2="46.5625" y2="37.92857142857141" style="visibility: inherit;" fill="rgb(0, 0, 0)" stroke="rgb(204, 204, 204)" stroke-width="1px"></line><line x1="51.5625" y1="25.285714285714256" x2="46.5625" y2="25.285714285714256" style="visibility: inherit;" fill="rgb(0, 0, 0)" stroke="rgb(204, 204, 204)" stroke-width="1px"></line><line x1="51.5625" y1="12.642857142857157" x2="46.5625" y2="12.642857142857157" style="visibility: inherit;" fill="rgb(0, 0, 0)" stroke="rgb(204, 204, 204)" stroke-width="1px"></line><line x1="51.5625" y1="0" x2="46.5625" y2="0" style="visibility: inherit;" fill="rgb(0, 0, 0)" stroke="rgb(204, 204, 204)" stroke-width="1px"></line></g><g transform="translate(41.5625, 0)"><text x="0" y="177" dx="0em" dy="0.3em" style="text-anchor: end; visibility: hidden; font-family: Roboto, sans-serif; font-size: 12px; font-weight: 200;" fill="rgb(33, 33, 33)" stroke="none" stroke-width="1px">0.2</text><text x="0" y="164.35714285714286" dx="0em" dy="0.3em" style="text-anchor: end; visibility: inherit; font-family: Roboto, sans-serif; font-size: 12px; font-weight: 200;" fill="rgb(33, 33, 33)" stroke="none" stroke-width="1px">0.25</text><text x="0" y="151.71428571428572" dx="0em" dy="0.3em" style="text-anchor: end; visibility: hidden; font-family: Roboto, sans-serif; font-size: 12px; font-weight: 200;" fill="rgb(33, 33, 33)" stroke="none" stroke-width="1px">0.3</text><text x="0" y="139.07142857142858" dx="0em" dy="0.3em" style="text-anchor: end; visibility: inherit; font-family: Roboto, sans-serif; font-size: 12px; font-weight: 200;" fill="rgb(33, 33, 33)" stroke="none" stroke-width="1px">0.35</text><text x="0" y="126.42857142857142" dx="0em" dy="0.3em" style="text-anchor: end; visibility: hidden; font-family: Roboto, sans-serif; font-size: 12px; font-weight: 200;" fill="rgb(33, 33, 33)" stroke="none" stroke-width="1px">0.4</text><text x="0" y="113.78571428571428" dx="0em" dy="0.3em" style="text-anchor: end; visibility: inherit; font-family: Roboto, sans-serif; font-size: 12px; font-weight: 200;" fill="rgb(33, 33, 33)" stroke="none" stroke-width="1px">0.45</text><text x="0" y="101.14285714285714" dx="0em" dy="0.3em" style="text-anchor: end; visibility: hidden; font-family: Roboto, sans-serif; font-size: 12px; font-weight: 200;" fill="rgb(33, 33, 33)" stroke="none" stroke-width="1px">0.5</text><text x="0" y="88.49999999999999" dx="0em" dy="0.3em" style="text-anchor: end; visibility: inherit; font-family: Roboto, sans-serif; font-size: 12px; font-weight: 200;" fill="rgb(33, 33, 33)" stroke="none" stroke-width="1px">0.55</text><text x="0" y="75.85714285714286" dx="0em" dy="0.3em" style="text-anchor: end; visibility: hidden; font-family: Roboto, sans-serif; font-size: 12px; font-weight: 200;" fill="rgb(33, 33, 33)" stroke="none" stroke-width="1px">0.6</text><text x="0" y="63.21428571428571" dx="0em" dy="0.3em" style="text-anchor: end; visibility: inherit; font-family: Roboto, sans-serif; font-size: 12px; font-weight: 200;" fill="rgb(33, 33, 33)" stroke="none" stroke-width="1px">0.65</text><text x="0" y="50.57142857142857" dx="0em" dy="0.3em" style="text-anchor: end; visibility: hidden; font-family: Roboto, sans-serif; font-size: 12px; font-weight: 200;" fill="rgb(33, 33, 33)" stroke="none" stroke-width="1px">0.7</text><text x="0" y="37.92857142857141" dx="0em" dy="0.3em" style="text-anchor: end; visibility: inherit; font-family: Roboto, sans-serif; font-size: 12px; font-weight: 200;" fill="rgb(33, 33, 33)" stroke="none" stroke-width="1px">0.75</text><text x="0" y="25.285714285714256" dx="0em" dy="0.3em" style="text-anchor: end; visibility: hidden; font-family: Roboto, sans-serif; font-size: 12px; font-weight: 200;" fill="rgb(33, 33, 33)" stroke="none" stroke-width="1px">0.8</text><text x="0" y="12.642857142857157" dx="0em" dy="0.3em" style="text-anchor: end; visibility: inherit; font-family: Roboto, sans-serif; font-size: 12px; font-weight: 200;" fill="rgb(33, 33, 33)" stroke="none" stroke-width="1px">0.85</text><text x="0" y="0" dx="0em" dy="0.3em" style="text-anchor: end; visibility: hidden; font-family: Roboto, sans-serif; font-size: 12px; font-weight: 200;" fill="rgb(33, 33, 33)" stroke="none" stroke-width="1px">0.9</text></g><line x1="51.5625" y1="0" x2="51.5625" y2="177" fill="rgb(0, 0, 0)" stroke="rgb(204, 204, 204)" stroke-width="1px"></line></g></g><g transform="translate(51, 0)" clip-path="url(#clip_0)"><clipPath id="clip_0"><rect width="278" height="177"></rect></clipPath><g><g><g><line x1="0" y1="0" x2="0" y2="177" fill="rgb(0, 0, 0)" stroke="rgb(66, 66, 66)" stroke-width="1px" opacity="0.25"></line><line x1="23.203125" y1="0" x2="23.203125" y2="177" fill="rgb(0, 0, 0)" stroke="rgb(66, 66, 66)" stroke-width="1px" opacity="0.25"></line><line x1="46.40625" y1="0" x2="46.40625" y2="177" fill="rgb(0, 0, 0)" stroke="rgb(66, 66, 66)" stroke-width="1px" opacity="0.25"></line><line x1="69.609375" y1="0" x2="69.609375" y2="177" fill="rgb(0, 0, 0)" stroke="rgb(66, 66, 66)" stroke-width="1px" opacity="0.25"></line><line x1="92.8125" y1="0" x2="92.8125" y2="177" fill="rgb(0, 0, 0)" stroke="rgb(66, 66, 66)" stroke-width="1px" opacity="0.25"></line><line x1="116.015625" y1="0" x2="116.015625" y2="177" fill="rgb(0, 0, 0)" stroke="rgb(66, 66, 66)" stroke-width="1px" opacity="0.25"></line><line x1="139.21875" y1="0" x2="139.21875" y2="177" fill="rgb(0, 0, 0)" stroke="rgb(66, 66, 66)" stroke-width="1px" opacity="0.25"></line><line x1="162.421875" y1="0" x2="162.421875" y2="177" fill="rgb(0, 0, 0)" stroke="rgb(66, 66, 66)" stroke-width="1px" opacity="0.25"></line><line x1="185.625" y1="0" x2="185.625" y2="177" fill="rgb(0, 0, 0)" stroke="rgb(66, 66, 66)" stroke-width="1px" opacity="0.25"></line><line x1="208.828125" y1="0" x2="208.828125" y2="177" fill="rgb(0, 0, 0)" stroke="rgb(66, 66, 66)" stroke-width="1px" opacity="0.25"></line><line x1="232.03125" y1="0" x2="232.03125" y2="177" fill="rgb(0, 0, 0)" stroke="rgb(66, 66, 66)" stroke-width="1px" opacity="0.25"></line><line x1="255.234375" y1="0" x2="255.234375" y2="177" fill="rgb(0, 0, 0)" stroke="rgb(66, 66, 66)" stroke-width="1px" opacity="0.25"></line><line x1="278.4375" y1="0" x2="278.4375" y2="177" fill="rgb(0, 0, 0)" stroke="rgb(66, 66, 66)" stroke-width="1px" opacity="0.25"></line></g><g><line x1="0" y1="177" x2="278.4375" y2="177" fill="rgb(0, 0, 0)" stroke="rgb(66, 66, 66)" stroke-width="1px" opacity="0.25"></line><line x1="0" y1="164.35714285714286" x2="278.4375" y2="164.35714285714286" fill="rgb(0, 0, 0)" stroke="rgb(66, 66, 66)" stroke-width="1px" opacity="0.25"></line><line x1="0" y1="151.71428571428572" x2="278.4375" y2="151.71428571428572" fill="rgb(0, 0, 0)" stroke="rgb(66, 66, 66)" stroke-width="1px" opacity="0.25"></line><line x1="0" y1="139.07142857142858" x2="278.4375" y2="139.07142857142858" fill="rgb(0, 0, 0)" stroke="rgb(66, 66, 66)" stroke-width="1px" opacity="0.25"></line><line x1="0" y1="126.42857142857142" x2="278.4375" y2="126.42857142857142" fill="rgb(0, 0, 0)" stroke="rgb(66, 66, 66)" stroke-width="1px" opacity="0.25"></line><line x1="0" y1="113.78571428571428" x2="278.4375" y2="113.78571428571428" fill="rgb(0, 0, 0)" stroke="rgb(66, 66, 66)" stroke-width="1px" opacity="0.25"></line><line x1="0" y1="101.14285714285714" x2="278.4375" y2="101.14285714285714" fill="rgb(0, 0, 0)" stroke="rgb(66, 66, 66)" stroke-width="1px" opacity="0.25"></line><line x1="0" y1="88.49999999999999" x2="278.4375" y2="88.49999999999999" fill="rgb(0, 0, 0)" stroke="rgb(66, 66, 66)" stroke-width="1px" opacity="0.25"></line><line x1="0" y1="75.85714285714286" x2="278.4375" y2="75.85714285714286" fill="rgb(0, 0, 0)" stroke="rgb(66, 66, 66)" stroke-width="1px" opacity="0.25"></line><line x1="0" y1="63.21428571428571" x2="278.4375" y2="63.21428571428571" fill="rgb(0, 0, 0)" stroke="rgb(66, 66, 66)" stroke-width="1px" opacity="0.25"></line><line x1="0" y1="50.57142857142857" x2="278.4375" y2="50.57142857142857" fill="rgb(0, 0, 0)" stroke="rgb(66, 66, 66)" stroke-width="1px" opacity="0.25"></line><line x1="0" y1="37.92857142857141" x2="278.4375" y2="37.92857142857141" fill="rgb(0, 0, 0)" stroke="rgb(66, 66, 66)" stroke-width="1px" opacity="0.25"></line><line x1="0" y1="25.285714285714256" x2="278.4375" y2="25.285714285714256" fill="rgb(0, 0, 0)" stroke="rgb(66, 66, 66)" stroke-width="1px" opacity="0.25"></line><line x1="0" y1="12.642857142857157" x2="278.4375" y2="12.642857142857157" fill="rgb(0, 0, 0)" stroke="rgb(66, 66, 66)" stroke-width="1px" opacity="0.25"></line><line x1="0" y1="0" x2="278.4375" y2="0" fill="rgb(0, 0, 0)" stroke="rgb(66, 66, 66)" stroke-width="1px" opacity="0.25"></line></g></g></g><g><g><line x1="0" y1="227.57142857142858" x2="278.4375" y2="227.57142857142858" fill="rgb(0, 0, 0)" stroke="rgb(153, 153, 153)" stroke-width="1.5px"></line></g></g><g><g><line x1="23.203125" y1="0" x2="23.203125" y2="177" fill="rgb(0, 0, 0)" stroke="rgb(153, 153, 153)" stroke-width="1.5px"></line></g></g><g><g><g><g><g><path stroke="rgb(238, 51, 119)" stroke-width="2px" d="M25.500234375,42.39109514440806L27.820546875,59.77431718724045L30.140859374999998,65.33836099371402L32.461171875,69.66453577967947L34.781484375,72.67887716932886L37.101796875000005,73.59795815063842L39.422109375,73.83427548957707L41.742421875,74.49201368084981L44.062734375,75.43542949847547L46.383046875,75.92924896555135L48.703359375,76.49498886163205L51.023671875,76.94999771989905L53.343984375,77.17366433763246L55.664296875,77.41581200748516L57.984609375,77.93948310001232L60.304921875,78.51191020097383L62.625234375,79.49122048952668L64.945546875,79.60527859821617L67.265859375,79.75118230865289L69.586171875,79.81332605562876L71.90648437499999,80.03470477217515L74.226796875,80.13282043947893L76.54710937499999,80.27975007067167L78.867421875,80.86810459277152L81.187734375,81.33334185815016L83.508046875,81.5523410350535L85.828359375,82.37950958488821L88.148671875,83.1311041924831L90.468984375,82.83912148476573L92.78929687499999,83.29279006630729L95.109609375,83.36532621987897L97.42992187499999,83.44632045540551L99.750234375,83.95417290473634L102.07054687499999,84.08083500051629L104.390859375,84.99926297531964L106.71117187499999,85.05016252151367L109.031484375,85.06209994163433L111.35179687499999,85.24640170228201L113.672109375,84.6385262929368L115.992421875,85.30383249468493L118.312734375,85.27684894438497L120.633046875,84.96445678464332L122.953359375,86.15608829958241L125.273671875,85.57686270016515L127.59398437499999,85.87851838545261L129.914296875,85.59507753530495L132.234609375,87.21628024636291L134.554921875,85.56162006717331L136.875234375,86.36580754331061L139.195546875,87.02335498581543L141.515859375,86.05452030627875L143.836171875,85.87700339139548L146.15648437500002,86.10380487639966L148.476796875,87.06139463794888L150.797109375,86.5317907855554L153.11742187500002,86.3492115452212L155.43773437500002,86.55092532697341L157.758046875,87.22295967471852L160.078359375,86.87273987333543L162.39867187500002,86.20176530933841L164.718984375,86.64300214488338L167.039296875,87.4805259424169L169.359609375,87.09722174400773L171.67992187500002,87.54548504470539L174.000234375,87.34387083062676L176.320546875,87.7300273421945L178.640859375,87.69264231628905L180.96117187500002,87.55306765277787L183.281484375,87.17396994180537L185.601796875,87.81327166278555L187.92210937500002,87.20774972169642L190.24242187500002,87.92858468348871L192.562734375,87.25926807379919L194.883046875,88.00980040332384L197.20335937500002,87.30358913957302L199.523671875,87.48551810328428L201.843984375,88.11966627608643L204.164296875,87.85248510082948L206.48460937500002,87.64864805486417L208.804921875,87.761520167456L211.125234375,88.23420617054165L213.445546875,88.0253292034208L215.76585937500002,87.76802069039883L218.086171875,87.62520963216122L220.406484375,87.85987887652554L222.72679687500002,86.68003715446511L225.04710937500002,87.14305630429581L227.367421875,88.48866645470203L229.687734375,88.60866531976507L232.00804687500002,88.24572927490406L234.328359375,88.5760786589094L236.648671875,88.23406996030269L238.968984375,89.05740799108229L241.28929687500002,88.19302890651602L243.609609375,89.37610143332098L245.929921875,89.2505847196557L248.250234375,88.6849285882253L250.57054687500002,89.21717884473296L252.890859375,88.64056814165103L255.211171875,89.3935127555529" style="fill: none;" fill="none"></path></g><g><path stroke="rgb(51, 187, 238)" stroke-width="2px" d="M39.422109375,-0.3940216140132764L41.742421875,1.5781668170527032L44.062734375,3.138993491132841L46.383046875,5.496309684610194L48.703359375,5.025921797297074L51.023671875,6.060332656757502L53.343984375,5.765362237297459L55.664296875,7.443797549016914L57.984609375,7.3657881455564596L60.304921875,7.7963943839980026L62.625234375,6.543349022728031L64.945546875,7.369198283607666L67.265859375,8.638773567217283L69.586171875,12.587777067386515L71.90648437499999,13.346279622333263L74.226796875,11.29732640077746L76.54710937499999,14.141819274675754L78.867421875,15.16361642217933L81.187734375,15.390618200584761L83.508046875,15.025385546460893L85.828359375,13.92601762269339L88.148671875,15.631640752761621L90.468984375,17.79077490054061L92.78929687499999,17.791029275872646L95.109609375,18.987570008555142L97.42992187499999,20.94694017114028L99.750234375,23.607846456151194L102.07054687499999,22.475739229230523L104.390859375,22.429112285358052L106.71117187499999,23.464023790203203L109.031484375,22.755441941365422L111.35179687499999,23.283062884120447L113.672109375,25.504551254478017L115.992421875,25.264719377513266L118.312734375,27.322486049598623L120.633046875,25.886328083110914L122.953359375,25.479305201436162L125.273671875,28.380180089135585L127.59398437499999,29.299049173335117L129.914296875,27.675399675213207L132.234609375,27.6813932718893L134.554921875,25.499490759830646L136.875234375,24.002120303481952L139.195546875,24.10861956810713L141.515859375,22.491322432380784L143.836171875,25.240274270443596L146.15648437500002,26.673943190764955L148.476796875,24.58161779849243L150.797109375,26.522131090606514L153.11742187500002,28.972539948123753L155.43773437500002,26.746849078225875L157.758046875,28.438641940981835L160.078359375,29.3322145775691L162.39867187500002,29.521161020385655L164.718984375,30.322639295191355L167.039296875,30.159502385382726L169.359609375,30.84348767811831L171.67992187500002,29.589520124004373L174.000234375,32.4247073582751L176.320546875,31.988170088226163L178.640859375,32.76780859481531L180.96117187500002,34.161435023778886L183.281484375,33.104920083979344L185.601796875,33.663940109030904L187.92210937500002,33.24501623606366L190.24242187500002,35.31392626700708L192.562734375,33.67453717696841L194.883046875,38.10138771129917L197.20335937500002,38.22244063212572L199.523671875,38.650944866741526L201.843984375,37.031693227768145L204.164296875,37.53933490580377L206.48460937500002,35.61195791204424L208.804921875,36.97742877243639L211.125234375,38.67767974316709L213.445546875,39.50896927423488L215.76585937500002,34.19318098872927L218.086171875,35.53652875063878L220.406484375,34.2375247558946L222.72679687500002,36.492581054939684L225.04710937500002,37.108366248525535L227.367421875,39.72286401348857L229.687734375,37.29547313478219L232.00804687500002,39.022024598875376L234.328359375,41.07780858693541L236.648671875,40.87796449479569L238.968984375,40.064037509080656L241.28929687500002,40.754752580119245L243.609609375,39.51671448720355L245.929921875,42.57347047085455L248.250234375,38.90503877920912L250.57054687500002,39.66282346219922L252.890859375,41.50166591430781L255.211171875,43.33668017478747" style="fill: none;" fill="none"></path></g><g><path stroke="rgb(204, 51, 17)" stroke-width="2px" d="M25.500234375,42.946267451558775L27.820546875,43.99200602873713L30.140859374999998,45.45499234438027L32.461171875,45.88834991336677L34.781484375,45.892225479808594L37.101796875000005,47.92597255221372L39.422109375,53.79919331921027L41.742421875,55.74592111028456L44.062734375,57.04274949464985L46.383046875,62.466885358207L48.703359375,65.08314692498102L51.023671875,69.07602350204269L53.343984375,67.19802012021194L55.664296875,65.03795369136535L57.984609375,66.60873101865971L60.304921875,67.52919442507032L62.625234375,69.6968351394238L64.945546875,68.93444677183476L67.265859375,72.80267579850003L69.586171875,70.56421780287532L71.90648437499999,75.15429130309472L74.226796875,71.51556643396134L76.54710937499999,69.84594545430625L78.867421875,68.30933332752548L81.187734375,71.69026052784237L83.508046875,75.37999954347072L85.828359375,74.70459678378846L88.148671875,73.4122077002527L90.468984375,73.04247756526287L92.78929687499999,70.68918608059603L95.109609375,71.06843642888187L97.42992187499999,74.63243464115916L99.750234375,75.67615784167057L102.07054687499999,75.92267457101846L104.390859375,75.25672922380991L106.71117187499999,75.15720304385849L109.031484375,70.55427212296867L111.35179687499999,73.68512518399105L113.672109375,77.01099228314624L115.992421875,81.14764175569435L118.312734375,82.57631635591638L120.633046875,84.51714315213306L122.953359375,82.28311608915594L125.273671875,82.40037582439001L127.59398437499999,82.78544963453369L129.914296875,83.35068788212502L132.234609375,80.6955212384441L134.554921875,80.73009028071364L136.875234375,84.21605189945072L139.195546875,81.98468591190341L141.515859375,85.38179138474881L143.836171875,87.86720355426127L146.15648437500002,88.7631479214679L148.476796875,85.99851836264078L150.797109375,89.34827122087754L153.11742187500002,88.5836087823601L155.43773437500002,89.39022779709886L157.758046875,92.00550212174424L160.078359375,93.04040350433394L162.39867187500002,94.71020406003169L164.718984375,91.4289141464093L167.039296875,94.89553301667998L169.359609375,97.55611910907047L171.67992187500002,98.13138693685127L174.000234375,97.86447066902042L176.320546875,95.35459486445531L178.640859375,96.87156022143509L180.96117187500002,93.70264115562578L183.281484375,96.29048161614614L185.601796875,98.55119053013027L187.92210937500002,99.09817586445273L190.24242187500002,99.04765385879772L192.562734375,99.40369084220721L194.883046875,100.1597764544872L197.20335937500002,101.41997737412844L199.523671875,99.87553361825461L201.843984375,101.72541799699304L204.164296875,100.23180991126966L206.48460937500002,101.66225163215493L208.804921875,95.3818377729074L211.125234375,102.31954414251955L213.445546875,100.61881391557276L215.76585937500002,102.17753866788122L218.086171875,106.59705516422399L220.406484375,106.8485620367134L222.72679687500002,105.77170632791973L225.04710937500002,104.5283022076313L227.367421875,104.24649971130945L229.687734375,105.88020024735724L232.00804687500002,102.18276178034125L234.328359375,99.83386902868254L236.648671875,101.31783745696379L238.968984375,102.71142644805428L241.28929687500002,104.44643121148718L243.609609375,111.38461721512229L245.929921875,106.20888782006448L248.250234375,105.02782566568213L250.57054687500002,104.57489586423696L252.890859375,104.9804402634099L255.211171875,107.42482007189174" style="fill: none;" fill="none"></path></g><g><path stroke="rgb(0, 119, 187)" stroke-width="2px" d="M25.500234375,115.41348774944032L27.820546875,125.16591396613988L30.140859374999998,127.4477228170291L32.461171875,128.7507827362582L34.781484375,132.10856195087663L37.101796875000005,130.22824841635457L39.422109375,134.68894415081556L41.742421875,135.48488077994412L44.062734375,130.6144040673277L46.383046875,130.5562308037821L48.703359375,127.78405738288882L51.023671875,128.46033856699682L53.343984375,129.4134949653773L55.664296875,135.18528979381915L57.984609375,135.23387804222057L60.304921875,133.21686350279037L62.625234375,136.5446551526579L64.945546875,137.34386339586345L67.265859375,139.58534604962603L69.586171875,135.1987181744516L71.90648437499999,137.77611253820075L74.226796875,137.63133975611834L76.54710937499999,145.843803901017L78.867421875,147.45404441343345L81.187734375,152.12215238431915L83.508046875,153.94438003158214L85.828359375,150.32591588039534L88.148671875,150.350716427801L90.468984375,149.46250652402964L92.78929687499999,149.59839376600777L95.109609375,154.39873384675735L97.42992187499999,156.07267495967133L99.750234375,159.40505685294823L102.07054687499999,158.89527153437206L104.390859375,159.00817449014707L106.71117187499999,155.8539315048524L109.031484375,159.63254837007173L111.35179687499999,152.5606372307408L113.672109375,151.68950288844678L115.992421875,153.43583284921988L118.312734375,158.3181735204119L120.633046875,158.04567069610928L122.953359375,158.8531749872888L125.273671875,158.56768953811624L127.59398437499999,162.69313267558118L129.914296875,159.89771289124855L132.234609375,161.54028582578985L134.554921875,161.02397193577693L136.875234375,164.8901449728191L139.195546875,161.2109026026975L141.515859375,161.14712763040737L143.836171875,159.67531974495023L146.15648437500002,157.9745732346817L148.476796875,156.83415040105942L150.797109375,158.60221236275333L153.11742187500002,159.6269325312536L155.43773437500002,159.4344552153264L157.758046875,161.65796856786753L160.078359375,159.37649308404764L162.39867187500002,159.25147589479909L164.718984375,160.71857837719267L167.039296875,162.0963214530533L169.359609375,161.55715788230572L171.67992187500002,161.40608974238685L174.000234375,159.7891082370932L176.320546875,163.43496265731713L178.640859375,161.68911879302118L180.96117187500002,161.7533873652411L183.281484375,160.24480285563385L185.601796875,163.77853569368267L187.92210937500002,162.680146150228L190.24242187500002,158.1798492344551L192.562734375,160.99945671512143L194.883046875,161.95665800038716L197.20335937500002,160.63980374180065L199.523671875,159.07487378779177L201.843984375,157.14415402415693L204.164296875,162.3799592368873L206.48460937500002,164.59325624378783L208.804921875,165.68386474073046L211.125234375,162.4981442239093L213.445546875,164.5383137174449L215.76585937500002,167.43384761835028L218.086171875,165.44474663240388L220.406484375,159.51615408314402L222.72679687500002,160.86852367359097L225.04710937500002,163.51896227275307L227.367421875,165.1050546929674L229.687734375,161.75627388615075L232.00804687500002,161.1380022919282L234.328359375,163.25899423932674L236.648671875,160.73013760730197L238.968984375,160.71819905979424L241.28929687500002,163.28110167816598L243.609609375,163.23406608765998L245.929921875,164.3701219579188L248.250234375,165.07791245575748L250.57054687500002,165.2816788986798L252.890859375,165.38354784325307L255.211171875,165.31745240922595" style="fill: none;" fill="none"></path></g></g></g></g><g opacity="0.2"><g><g><g><path stroke="rgb(238, 51, 119)" stroke-width="2px" d="M25.500234375,42.39109514440806L27.820546875,67.78798254898616L30.140859374999998,69.08586134229387L32.461171875,73.00215012686593L34.781484375,75.14056425435203L37.101796875000005,74.36766963345664L39.422109375,74.03445472036088L41.742421875,75.05207971164158L44.062734375,76.24067534719194L46.383046875,76.35120943614415L48.703359375,76.97864939485277L51.023671875,77.33908336503166L53.343984375,77.36494599069867L55.664296875,77.62290910312107L57.984609375,78.38736370631626L60.304921875,79.00149556568691L62.625234375,80.32880892072404L64.945546875,79.70283089365277L67.265859375,79.87597182818821L69.586171875,79.8664768082755L71.90648437499999,80.22404720102037L74.226796875,80.2167375428336L76.54710937499999,80.4054171528135L78.867421875,81.37131689276013L81.187734375,81.73125350475311L83.508046875,81.73964830807277L85.828359375,83.08697656222752L88.148671875,83.7739337171827L90.468984375,82.58939230442047L92.78929687499999,83.68080716473716L95.109609375,83.42736549036843L97.42992187499999,83.51559381825584L99.750234375,84.38853279181889L102.07054687499999,84.18916751657213L104.390859375,85.78478300571442L106.71117187499999,85.09369627067021L109.031484375,85.07230986867631L111.35179687499999,85.40403270721436L113.672109375,84.11861801147461L115.992421875,85.87286061900002L118.312734375,85.25377024923051L120.633046875,84.69727165358407L122.953359375,87.1752759218216L125.273671875,85.08145824500492L127.59398437499999,86.13652074337006L129.914296875,85.35265409946442L132.234609375,88.60287477288927L134.554921875,84.14640978404454L136.875234375,87.05361909525735L139.195546875,87.58574713979448L141.515859375,85.22588804789952L143.836171875,85.72517538070679L146.15648437500002,86.2977853672845L148.476796875,87.88040925775255L150.797109375,86.07882719380515L153.11742187500002,86.19305379050118L155.43773437500002,86.72344861711774L157.758046875,87.79774229867118L160.078359375,86.5732012305941L162.39867187500002,85.62788910525185L164.718984375,87.02038652556283L167.039296875,88.19684963566917L169.359609375,86.76938642774309L171.67992187500002,87.92887907368797L174.000234375,87.17143269947597L176.320546875,88.06030220644814L178.640859375,87.6606673683439L180.96117187500002,87.43369117804936L183.281484375,86.84973238195691L185.601796875,88.3600584779467L187.92210937500002,86.68985433237893L190.24242187500002,88.54510586602348L192.562734375,86.68680989742279L194.883046875,88.65172137532915L197.20335937500002,86.69957542419434L199.523671875,87.64111968449184L201.843984375,88.6620453255517L204.164296875,87.62396836280823L206.48460937500002,87.47430876323155L208.804921875,87.85805828230721L211.125234375,88.63848863329207L213.445546875,87.84667932987213L215.76585937500002,87.54794791766575L218.086171875,87.50306510925293L220.406484375,88.06058856419155L222.72679687500002,85.67093319552285L225.04710937500002,87.53907082762036L227.367421875,89.63955008983612L229.687734375,88.71129885741642L232.00804687500002,87.93531458718437L234.328359375,88.85862238066537L236.648671875,87.94155417169843L238.968984375,89.76159877436501L241.28929687500002,87.45373622008732L243.609609375,90.38796865940094L245.929921875,89.14323183468409L248.250234375,88.20112993035997L250.57054687500002,89.67240587302616L252.890859375,88.14740017482212L255.211171875,90.03749692440033" style="fill: none;" fill="none"></path></g><g><path stroke="rgb(51, 187, 238)" stroke-width="2px" d="M34.781484375,-5.36813158648358L37.101796875000005,0.8250479016985072L39.422109375,1.6735560383115242L41.742421875,3.2574911458151457L44.062734375,4.47122597694395L46.383046875,7.510596922465719L48.703359375,4.6237792968749805L51.023671875,6.944874593189759L53.343984375,5.513100947652528L55.664296875,8.87928143569399L57.984609375,7.299068978854574L60.304921875,8.164683222770671L62.625234375,5.471639360700318L64.945546875,8.075535535812358L67.265859375,9.724624565669455L69.586171875,15.96530929633547L71.90648437499999,13.995017307145224L74.226796875,9.544882331575643L76.54710937499999,16.57467857428957L78.867421875,16.037546804973044L81.187734375,15.584769998277913L83.508046875,14.713006598608807L85.828359375,12.985741904803671L88.148671875,17.09043901307241L90.468984375,19.637455497469197L92.78929687499999,17.791246839932008L95.109609375,20.010956423623192L97.42992187499999,22.622765115329184L99.750234375,25.88368652548106L102.07054687499999,21.507461990628908L104.390859375,22.389232839856813L106.71117187499999,24.349170735904135L109.031484375,22.149400694029644L111.35179687499999,23.73433051790507L113.672109375,27.40456264359609L115.992421875,25.05959415435789L118.312734375,29.082468305315267L120.633046875,24.65800002643038L122.953359375,25.131183590207765L125.273671875,30.861262321472147L127.59398437499999,30.08494647911615L129.914296875,26.28671244212557L132.234609375,27.68651952062333L134.554921875,23.633336663246133L136.875234375,22.721437965120565L139.195546875,24.199707065309774L141.515859375,21.108068295887513L143.836171875,27.59141860689433L146.15648437500002,27.900142397199343L148.476796875,22.792077898979166L150.797109375,28.18182798794336L153.11742187500002,31.068344184330506L155.43773437500002,24.843243343489483L157.758046875,29.885611346789755L160.078359375,30.096476146153016L162.39867187500002,29.68276456424166L164.718984375,31.00813370091573L167.039296875,30.01997341428483L169.359609375,31.428491796765993L171.67992187500002,28.51701726232255L174.000234375,34.849607757159625L176.320546875,31.614805187497804L178.640859375,33.4346237182617L180.96117187500002,35.3533863851002L183.281484375,32.20129598890031L185.601796875,34.142062987600035L187.92210937500002,32.886715854917234L190.24242187500002,37.08343929903845L192.562734375,32.27238806656427L194.883046875,41.88761794567106L197.20335937500002,38.32597569056917L199.523671875,39.01743921211786L201.843984375,35.64676742894307L204.164296875,37.97351452282495L206.48460937500002,33.963496327400186L208.804921875,38.145299025944276L211.125234375,40.13188326358793L213.445546875,40.219960876873536L215.76585937500002,29.646653345652975L218.086171875,36.68547739301408L220.406484375,33.12650278636385L222.72679687500002,38.421302676200845L225.04710937500002,37.63503967012675L227.367421875,41.95901145253862L229.687734375,35.219355889729066L232.00804687500002,40.49872260434285L234.328359375,42.83609507765086L236.648671875,40.707040326935896L238.968984375,39.367895875658284L241.28929687500002,41.34551259449548L243.609609375,38.45783589567454L245.929921875,45.18787586688993L248.250234375,35.767474753516034L250.57054687500002,40.310947281973675L252.890859375,43.07440500599996L255.211171875,44.90614506176538" style="fill: none;" fill="none"></path></g><g><path stroke="rgb(204, 51, 17)" stroke-width="2px" d="M25.500234375,42.946267451558775L27.820546875,44.474091512816265L30.140859374999998,46.44034435067857L32.461171875,46.222682322774595L34.781484375,45.895390493529156L37.101796875000005,49.629194038254866L39.422109375,58.774269717080244L41.742421875,57.40356562818799L44.062734375,58.14964812142507L46.383046875,67.1017186811992L48.703359375,67.31983285290855L51.023671875,72.4903986964907L53.343984375,65.59193515777588L55.664296875,63.19055419308797L57.984609375,67.95217103617532L60.304921875,68.31644822869981L62.625234375,71.55078358309609L64.945546875,68.28238672869546L67.265859375,76.11112107549394L69.586171875,68.64969328471592L71.90648437499999,79.08012337344033L74.226796875,68.40341055393219L76.54710937499999,68.41793944154466L78.867421875,66.99508810043335L81.187734375,74.58192551136017L83.508046875,78.53578744615827L85.828359375,74.12693320001874L88.148671875,72.30684338297162L90.468984375,72.72625197683061L92.78929687499999,68.67644512653351L95.109609375,71.39280453750065L97.42992187499999,77.68067800998688L99.750234375,76.56884132112775L102.07054687499999,76.13351726531982L104.390859375,74.68715444632939L106.71117187499999,75.07207953929901L109.031484375,66.61744252273014L111.35179687499999,76.36290488924298L113.672109375,79.85556507110596L115.992421875,84.6856666292463L118.312734375,83.7982439824513L120.633046875,86.17710818563188L122.953359375,80.3723805121013L125.273671875,82.50066661834717L127.59398437499999,83.11479847771781L129.914296875,83.83412912913731L132.234609375,78.4245902129582L134.554921875,80.75965675285885L136.875234375,87.19755153996604L139.195546875,80.07622631958553L141.515859375,88.28729346820286L143.836171875,89.99294568811143L146.15648437500002,89.52943800176894L148.476796875,83.63396506650108L150.797109375,92.21327320166996L153.11742187500002,87.92960250377655L155.43773437500002,90.08011901378632L157.758046875,94.24231374263763L160.078359375,93.92554179259709L162.39867187500002,96.13836371898651L164.718984375,88.62246767112187L167.039296875,97.86048904487065L169.359609375,99.83168532167161L171.67992187500002,98.62340635912759L174.000234375,97.63618050302779L176.320546875,93.20792928763798L178.640859375,98.16900183473314L180.96117187500002,90.99230406965529L183.281484375,98.50382939406803L185.601796875,100.48474676268441L187.92210937500002,99.56600562163761L190.24242187500002,99.00444301537104L192.562734375,99.70820484842574L194.883046875,100.80644708020347L197.20335937500002,102.49781155586243L199.523671875,98.55459007195063L201.843984375,103.3076011112758L204.164296875,98.95434548173631L206.48460937500002,102.88569065502712L208.804921875,90.0102778673172L211.125234375,108.2532781617982L213.445546875,99.1642004932676L215.76585937500002,103.51069657291686L218.086171875,110.37701268707002L220.406484375,107.06367273841585L222.72679687500002,104.85068502596447L225.04710937500002,103.4648341195924L227.367421875,104.00547753913062L229.687734375,107.2774840082441L232.00804687500002,99.02038862024034L234.328359375,97.82489025592804L236.648671875,102.5870572073119L238.968984375,103.90334578922817L241.28929687500002,105.93035921880177L243.609609375,117.31876145941871L245.929921875,101.78215080499649L248.250234375,104.01767788614546L250.57054687500002,104.18751063517162L252.890859375,105.32729734693254L255.211171875,109.51546773740223" style="fill: none;" fill="none"></path></g><g><path stroke="rgb(0, 119, 187)" stroke-width="2px" d="M25.500234375,115.41348774944032L27.820546875,129.66178245203835L30.140859374999998,128.98456899608885L32.461171875,129.75608457837785L34.781484375,134.8507204055786L37.101796875000005,128.65352437325885L39.422109375,138.46750159774507L41.742421875,136.16262319258283L44.062734375,126.45724337441581L46.383046875,130.50652272360665L48.703359375,125.41407979386193L51.023671875,129.03863785948073L53.343984375,130.2286426765578L55.664296875,140.12162449530194L57.984609375,135.27543415342058L60.304921875,131.49175161123276L62.625234375,139.3908621413367L64.945546875,138.02741496052062L67.265859375,141.50245660543442L69.586171875,131.4468914100102L71.90648437499999,139.98052548510688L74.226796875,137.50751740591866L76.54710937499999,152.86782211916787L78.867421875,148.83126308236803L81.187734375,156.11472707135337L83.508046875,155.50290868112018L85.828359375,147.23108847652162L88.148671875,150.37192802769798L90.468984375,148.70283163445336L92.78929687499999,149.71461643491475L95.109609375,158.50440504721234L97.42992187499999,157.50437598569053L99.750234375,162.25520166328977L102.07054687499999,158.45925848824638L104.390859375,159.10473898478915L106.71117187499999,153.1561466881207L109.031484375,162.86435240507126L111.35179687499999,146.51211954014641L113.672109375,150.94443251405445L115.992421875,154.92944715704238L118.312734375,162.49397880690438L120.633046875,157.81260241780964L122.953359375,159.54382336991173L125.273671875,158.32351738214493L127.59398437499999,166.22157291003634L129.914296875,157.5068250979696L132.234609375,162.94515803882052L134.554921875,160.58237508365085L136.875234375,168.1968347132206L139.195546875,158.06409233808517L141.515859375,161.09258168935776L143.836171875,158.41650075571877L146.15648437500002,156.51994588545392L148.476796875,155.85876092740466L150.797109375,160.1144137808255L153.11742187500002,160.50336295366287L155.43773437500002,159.26983175958907L157.758046875,163.5597118990762L160.078359375,157.42517546245028L162.39867187500002,159.1445502468518L164.718984375,161.97337289367405L167.039296875,163.27468797990252L169.359609375,161.09601798227857L171.67992187500002,161.27688304015567L174.000234375,158.4061240553856L176.320546875,166.55321662340847L178.640859375,160.19592023747308L180.96117187500002,161.80835547617505L183.281484375,158.95452927691596L185.601796875,166.80089346425873L187.92210937500002,161.74070722716195L190.24242187500002,154.33080122300555L192.562734375,163.41103194441115L194.883046875,162.77534036125456L197.20335937500002,159.51351466349195L199.523671875,157.7364086508751L201.843984375,155.49283340999057L204.164296875,166.8580783520426L206.48460937500002,166.48626166156362L208.804921875,166.6166486314365L211.125234375,159.7734370657376L213.445546875,166.2832453250885L215.76585937500002,169.91036177107264L218.086171875,163.74349328449796L220.406484375,154.44550257069724L222.72679687500002,162.02518857376916L225.04710937500002,165.78584946053368L227.367421875,166.46161982417107L229.687734375,158.89210328885486L232.00804687500002,160.60920228276936L234.328359375,165.07305228710175L236.648671875,158.56723796469825L238.968984375,160.7079881685121L241.28929687500002,165.47312042968613L243.609609375,163.19383713177274L245.929921875,165.3417764220919L248.250234375,165.683276870421L250.57054687500002,165.45595780440738L252.890859375,165.4706750852721L255.211171875,165.26092180609703" style="fill: none;" fill="none"></path></g></g></g></g></g></g><g transform="translate(51, 177)" clip-path="url(#clip_1)"><clipPath id="clip_1"><rect width="278" height="23"></rect></clipPath><g><g><line x1="0" y1="0" x2="0" y2="5" style="visibility: inherit;" fill="rgb(0, 0, 0)" stroke="rgb(204, 204, 204)" stroke-width="1px"></line><line x1="23.203125" y1="0" x2="23.203125" y2="5" style="visibility: inherit;" fill="rgb(0, 0, 0)" stroke="rgb(204, 204, 204)" stroke-width="1px"></line><line x1="46.40625" y1="0" x2="46.40625" y2="5" style="visibility: inherit;" fill="rgb(0, 0, 0)" stroke="rgb(204, 204, 204)" stroke-width="1px"></line><line x1="69.609375" y1="0" x2="69.609375" y2="5" style="visibility: inherit;" fill="rgb(0, 0, 0)" stroke="rgb(204, 204, 204)" stroke-width="1px"></line><line x1="92.8125" y1="0" x2="92.8125" y2="5" style="visibility: inherit;" fill="rgb(0, 0, 0)" stroke="rgb(204, 204, 204)" stroke-width="1px"></line><line x1="116.015625" y1="0" x2="116.015625" y2="5" style="visibility: inherit;" fill="rgb(0, 0, 0)" stroke="rgb(204, 204, 204)" stroke-width="1px"></line><line x1="139.21875" y1="0" x2="139.21875" y2="5" style="visibility: inherit;" fill="rgb(0, 0, 0)" stroke="rgb(204, 204, 204)" stroke-width="1px"></line><line x1="162.421875" y1="0" x2="162.421875" y2="5" style="visibility: inherit;" fill="rgb(0, 0, 0)" stroke="rgb(204, 204, 204)" stroke-width="1px"></line><line x1="185.625" y1="0" x2="185.625" y2="5" style="visibility: inherit;" fill="rgb(0, 0, 0)" stroke="rgb(204, 204, 204)" stroke-width="1px"></line><line x1="208.828125" y1="0" x2="208.828125" y2="5" style="visibility: inherit;" fill="rgb(0, 0, 0)" stroke="rgb(204, 204, 204)" stroke-width="1px"></line><line x1="232.03125" y1="0" x2="232.03125" y2="5" style="visibility: inherit;" fill="rgb(0, 0, 0)" stroke="rgb(204, 204, 204)" stroke-width="1px"></line><line x1="255.234375" y1="0" x2="255.234375" y2="5" style="visibility: inherit;" fill="rgb(0, 0, 0)" stroke="rgb(204, 204, 204)" stroke-width="1px"></line><line x1="278.4375" y1="0" x2="278.4375" y2="5" style="visibility: inherit;" fill="rgb(0, 0, 0)" stroke="rgb(204, 204, 204)" stroke-width="1px"></line></g><g transform="translate(0, 8)"><text x="0" y="0" dx="0em" dy="0.95em" style="text-anchor: middle; visibility: hidden; font-family: Roboto, sans-serif; font-size: 12px; font-weight: 200;" fill="rgb(33, 33, 33)" stroke="none" stroke-width="1px">-1k</text><text x="23.203125" y="0" dx="0em" dy="0.95em" style="text-anchor: middle; visibility: inherit; font-family: Roboto, sans-serif; font-size: 12px; font-weight: 200;" fill="rgb(33, 33, 33)" stroke="none" stroke-width="1px">0</text><text x="46.40625" y="0" dx="0em" dy="0.95em" style="text-anchor: middle; visibility: inherit; font-family: Roboto, sans-serif; font-size: 12px; font-weight: 200;" fill="rgb(33, 33, 33)" stroke="none" stroke-width="1px">1k</text><text x="69.609375" y="0" dx="0em" dy="0.95em" style="text-anchor: middle; visibility: inherit; font-family: Roboto, sans-serif; font-size: 12px; font-weight: 200;" fill="rgb(33, 33, 33)" stroke="none" stroke-width="1px">2k</text><text x="92.8125" y="0" dx="0em" dy="0.95em" style="text-anchor: middle; visibility: inherit; font-family: Roboto, sans-serif; font-size: 12px; font-weight: 200;" fill="rgb(33, 33, 33)" stroke="none" stroke-width="1px">3k</text><text x="116.015625" y="0" dx="0em" dy="0.95em" style="text-anchor: middle; visibility: inherit; font-family: Roboto, sans-serif; font-size: 12px; font-weight: 200;" fill="rgb(33, 33, 33)" stroke="none" stroke-width="1px">4k</text><text x="139.21875" y="0" dx="0em" dy="0.95em" style="text-anchor: middle; visibility: inherit; font-family: Roboto, sans-serif; font-size: 12px; font-weight: 200;" fill="rgb(33, 33, 33)" stroke="none" stroke-width="1px">5k</text><text x="162.421875" y="0" dx="0em" dy="0.95em" style="text-anchor: middle; visibility: inherit; font-family: Roboto, sans-serif; font-size: 12px; font-weight: 200;" fill="rgb(33, 33, 33)" stroke="none" stroke-width="1px">6k</text><text x="185.625" y="0" dx="0em" dy="0.95em" style="text-anchor: middle; visibility: inherit; font-family: Roboto, sans-serif; font-size: 12px; font-weight: 200;" fill="rgb(33, 33, 33)" stroke="none" stroke-width="1px">7k</text><text x="208.828125" y="0" dx="0em" dy="0.95em" style="text-anchor: middle; visibility: inherit; font-family: Roboto, sans-serif; font-size: 12px; font-weight: 200;" fill="rgb(33, 33, 33)" stroke="none" stroke-width="1px">8k</text><text x="232.03125" y="0" dx="0em" dy="0.95em" style="text-anchor: middle; visibility: inherit; font-family: Roboto, sans-serif; font-size: 12px; font-weight: 200;" fill="rgb(33, 33, 33)" stroke="none" stroke-width="1px">9k</text><text x="255.234375" y="0" dx="0em" dy="0.95em" style="text-anchor: middle; visibility: inherit; font-family: Roboto, sans-serif; font-size: 12px; font-weight: 200;" fill="rgb(33, 33, 33)" stroke="none" stroke-width="1px">10k</text><text x="278.4375" y="0" dx="0em" dy="0.95em" style="text-anchor: middle; visibility: hidden; font-family: Roboto, sans-serif; font-size: 12px; font-weight: 200;" fill="rgb(33, 33, 33)" stroke="none" stroke-width="1px">11k</text></g><line x1="0" y1="0" x2="278.4375" y2="0" fill="rgb(0, 0, 0)" stroke="rgb(204, 204, 204)" stroke-width="1px"></line></g></g></g></g></svg>